<?xml version="1.0" standalone="no"?>
<!DOCTYPE svg PUBLIC "-//W3C//DTD SVG 20010904//EN"
 "http://www.w3.org/TR/2001/REC-SVG-20010904/DTD/svg10.dtd">
<svg version="1.0" xmlns="http://www.w3.org/2000/svg"
 width="500.000000pt" height="500.000000pt" viewBox="0 0 500.000000 500.000000"
 preserveAspectRatio="xMidYMid meet">

<g transform="translate(0.000000,500.000000) scale(0.100000,-0.100000)"
fill="#000000" stroke="none">
<path d="M0 2500 l0 -2500 2500 0 2500 0 0 2500 0 2500 -2500 0 -2500 0 0
-2500z m2650 963 c0 -7 -9 -13 -20 -13 -22 0 -26 20 -8 38 13 13 28 -1 28 -25z
m16 -47 c0 0 8 -15 16 -33 14 -28 14 -34 2 -44 -8 -6 -14 -16 -14 -22 0 -5 -8
-16 -17 -23 -17 -13 -17 -15 -1 -27 17 -13 21 -32 19 -80 -1 -36 -39 -56 -76
-39 -15 7 -25 20 -25 32 0 33 -23 22 -53 -26 l-27 -46 32 -44 c32 -45 42 -52
53 -34 3 6 24 10 45 10 50 0 54 -13 35 -118 -19 -112 -30 -318 -28 -552 2
-203 4 -239 20 -279 6 -16 9 69 9 250 -1 315 8 502 30 609 3 14 6 35 8 48 1
12 11 32 22 45 59 67 57 59 25 103 -34 47 -47 110 -24 118 26 10 35 -4 18 -30
-14 -22 -13 -26 20 -70 19 -25 35 -51 35 -57 0 -6 -15 -26 -32 -45 -26 -27
-29 -33 -13 -29 27 8 104 27 135 34 15 3 36 23 55 51 53 82 152 139 168 98 9
-23 -4 -56 -21 -56 -12 0 -13 -3 -5 -11 9 -9 9 -19 -2 -39 l-14 -27 182 -7
c100 -4 224 -13 275 -19 51 -7 95 -10 96 -7 2 3 -3 19 -10 37 l-13 32 -41 -16
c-39 -15 -42 -15 -68 4 -15 10 -35 22 -44 26 -10 3 -18 13 -18 22 0 19 16 20
24 0 3 -8 21 -23 40 -32 34 -16 36 -16 70 8 44 30 53 48 21 41 -18 -3 -27 3
-39 26 -16 32 -22 102 -8 102 4 0 16 3 27 6 37 10 95 -62 65 -81 -17 -10 2
-35 27 -35 13 0 22 4 19 9 -3 5 1 14 9 21 9 7 15 20 14 29 -1 9 2 24 6 35 4
10 4 21 -2 25 -19 12 -23 69 -7 86 23 22 34 10 34 -37 l0 -42 28 26 c34 32 61
38 75 16 15 -23 -24 -104 -75 -160 -21 -23 -36 -44 -33 -47 3 -3 33 -6 65 -7
33 0 59 -5 58 -9 -3 -9 -95 -8 -140 1 -33 7 -34 5 -7 -40 22 -37 66 -54 112
-43 20 6 21 5 4 -7 -13 -10 -16 -21 -11 -40 5 -20 2 -26 -10 -26 -12 0 -13 -5
-7 -22 5 -13 13 -22 18 -21 4 1 8 -12 9 -28 1 -21 -2 -27 -9 -20 -7 7 -15 7
-24 -1 -10 -8 -18 -7 -31 6 -10 9 -24 16 -32 16 -16 0 -39 29 -42 55 -1 11 -5
-178 -8 -420 -3 -242 -2 -444 1 -450 4 -5 14 -34 24 -64 18 -56 17 -142 -4
-278 -4 -29 -4 -53 1 -53 4 0 8 7 8 16 0 8 5 12 11 9 7 -5 5 -13 -5 -24 -19
-20 -21 -75 -5 -120 17 -49 29 -37 29 29 0 34 6 74 14 89 8 15 16 58 17 94 2
50 7 71 21 83 16 15 18 15 18 1 0 -8 -7 -22 -15 -31 -8 -8 -15 -32 -15 -55 0
-33 3 -40 23 -43 19 -3 22 -9 22 -45 0 -57 11 -63 44 -22 31 37 96 78 107 66
4 -3 -5 -22 -20 -41 -30 -40 -32 -48 -11 -40 24 9 19 -39 -7 -72 -15 -19 -23
-42 -23 -69 l0 -40 -94 2 c-72 2 -99 7 -113 20 -17 15 -20 15 -38 -5 -18 -20
-29 -21 -125 -19 -62 1 -104 6 -103 12 2 6 11 9 21 9 13 -1 16 3 11 15 -5 9
-8 32 -7 52 l1 37 -227 7 c-148 4 -291 2 -416 -6 -224 -15 -257 -15 -434 -3
l-133 9 -24 -28 c-24 -28 -33 -64 -14 -52 6 3 10 -2 11 -12 0 -14 2 -14 9 5 5
12 12 22 15 22 4 0 3 -5 0 -10 -3 -5 0 -10 8 -10 8 0 17 -7 21 -15 4 -13 -8
-15 -79 -15 -81 0 -85 1 -86 23 l0 22 -9 -22 c-8 -19 -17 -23 -50 -23 -22 0
-40 3 -40 8 1 14 27 42 33 35 4 -3 7 -1 7 6 0 7 5 9 10 6 20 -12 9 22 -14 44
-22 21 -28 22 -155 15 l-131 -7 -2 -51 -2 -51 -3 53 -4 52 -48 0 c-48 0 -48 0
-55 38 -9 56 -7 122 5 183 9 45 8 61 -7 99 -9 25 -18 64 -18 87 -1 32 -9 50
-31 73 -16 16 -31 28 -33 25 -3 -2 -13 0 -22 5 -13 7 -21 5 -30 -5 -16 -20
-69 -20 -75 0 -3 8 -8 23 -12 33 -12 32 -10 132 3 132 7 0 16 9 19 20 4 11 11
18 16 15 5 -4 9 137 9 358 l0 364 53 7 c143 18 132 13 132 56 0 44 7 55 30 47
10 -4 15 -19 15 -43 0 -36 1 -36 31 -30 17 3 69 6 115 6 83 0 84 0 84 25 0 14
2 25 4 25 2 0 12 3 22 7 15 5 16 2 11 -25 -6 -29 -4 -32 18 -32 25 0 25 -1 25
-87 l1 -88 23 28 23 29 20 -32 20 -32 7 54 c13 106 17 118 37 118 23 0 23 -6
-1 58 -24 63 -25 90 -4 120 34 49 91 9 121 -85 l17 -55 18 41 c18 43 32 51 42
25 11 -28 6 -92 -6 -97 -25 -9 8 -27 102 -56 71 -23 98 -27 113 -19 18 9 16
13 -28 58 l-48 49 37 51 c31 43 36 56 30 86 -7 36 1 42 30 21 20 -15 66 -11
66 5 0 5 -11 24 -25 43 -30 38 -26 76 8 100 17 12 55 12 63 1z m257 -19 c3 -8
2 -19 -2 -25 -10 -16 -35 3 -28 22 8 19 23 21 30 3z m-1393 -56 c0 -19 -31
-25 -42 -8 -8 13 14 36 29 30 7 -3 13 -13 13 -22z m305 -11 c-3 -5 0 -10 8
-10 14 0 27 -20 27 -40 0 -5 -16 -14 -37 -21 -32 -10 -38 -10 -50 7 -17 23
-17 39 3 58 17 17 59 22 49 6z m553 -21 c-2 -6 -8 -10 -13 -10 -5 0 -11 4 -13
10 -2 6 4 11 13 11 9 0 15 -5 13 -11z m-620 -53 c3 -12 -1 -17 -10 -14 -7 3
-15 13 -16 22 -3 12 1 17 10 14 7 -3 15 -13 16 -22z m1649 -13 c0 -7 -6 -14
-14 -17 -9 -4 -13 4 -13 25 0 24 2 28 13 17 8 -7 14 -18 14 -25z m-147 -14 c0
-5 -7 -9 -15 -9 -15 0 -20 12 -9 23 8 8 24 -1 24 -14z m-1940 -58 c0 -11 -34
-51 -80 -94 -44 -41 -80 -82 -80 -91 0 -12 -6 -15 -25 -10 -19 5 -25 2 -25
-10 0 -31 55 -19 89 19 17 19 32 35 35 35 2 0 19 14 36 30 44 41 66 36 62 -12
-1 -20 2 -39 8 -43 5 -3 10 -15 10 -27 0 -17 -5 -20 -30 -16 -38 6 -40 -18 -6
-59 22 -26 24 -36 19 -90 -5 -58 -4 -61 31 -100 49 -55 51 -104 4 -133 -18
-11 -35 -30 -38 -42 -3 -13 -15 -24 -26 -26 -15 -2 -23 7 -36 41 -9 24 -44 82
-78 127 -34 46 -68 97 -76 113 -15 28 -16 28 -35 11 -22 -20 -21 -20 -39 24
-17 43 -23 45 -54 21 -25 -20 -46 -19 -46 3 0 6 36 46 80 90 44 43 80 83 80
88 0 5 -13 19 -30 31 -16 12 -27 26 -25 30 3 4 1 17 -3 30 -7 19 -3 27 21 48
l29 25 19 -25 c10 -13 24 -24 31 -24 7 0 14 -10 14 -23 1 -12 4 -25 7 -28 3
-3 31 20 63 50 61 58 94 71 94 37z m2734 -252 c-8 -14 -44 -11 -41 4 1 6 6 15
12 19 12 9 37 -11 29 -23z m-2655 -89 c-1 -96 -12 -113 -43 -68 -20 29 -20 50
1 96 9 20 15 43 14 50 -1 6 5 12 14 12 13 0 15 -14 14 -90z m-488 23 c13 -16
12 -17 -3 -4 -10 7 -18 15 -18 17 0 8 8 3 21 -13z m34 -63 c5 -22 14 -32 33
-36 15 -3 43 -13 62 -23 28 -13 36 -23 38 -50 6 -57 -10 -57 -99 3 -46 31 -90
56 -98 56 -19 0 -61 -39 -61 -57 0 -14 -26 -18 -34 -5 -3 5 10 24 29 42 19 19
35 41 35 50 0 21 35 54 49 46 5 -4 12 -2 16 4 10 16 23 3 30 -30z m2895 9 c0
-5 -4 -9 -10 -9 -5 0 -10 7 -10 16 0 8 5 12 10 9 6 -3 10 -10 10 -16z m-2869
-6 c13 -16 12 -17 -3 -4 -10 7 -18 15 -18 17 0 8 8 3 21 -13z m3187 -79 c37
-10 26 -27 -13 -20 -46 9 -44 -4 5 -32 22 -12 40 -29 40 -37 0 -8 -2 -15 -4
-15 -2 0 -13 -3 -23 -7 -16 -6 -16 -5 -5 10 18 21 9 34 -34 52 -38 16 -43 29
-16 44 20 12 21 12 50 5z m-287 -45 c19 -10 19 -12 4 -35 -23 -36 -55 -66 -55
-53 0 6 -7 9 -15 5 -24 -9 -18 22 13 60 31 39 27 37 53 23z m29 -58 c0 -12
-20 -25 -27 -18 -7 7 6 27 18 27 5 0 9 -4 9 -9z m195 -21 c-3 -6 3 -22 14 -36
23 -29 27 -44 11 -44 -5 0 -10 5 -10 12 0 6 -7 19 -16 29 -15 16 -14 49 1 49
4 0 3 -5 0 -10z m-252 -53 c-33 -53 -90 -117 -105 -117 -10 0 -18 3 -18 6 0
11 70 88 98 106 32 21 36 22 25 5z m-2698 -87 c3 -5 16 -15 27 -21 18 -10 20
-9 15 7 -5 13 1 10 16 -8 12 -16 26 -28 29 -28 4 0 8 12 10 28 l4 27 8 -30 c4
-16 12 -37 17 -45 30 -47 48 -104 55 -170 4 -41 10 -85 15 -96 5 -14 2 -29 -7
-43 -22 -31 -14 -65 15 -69 20 -3 22 -8 18 -32 -8 -39 13 -66 41 -51 20 10 82
16 82 7 0 -18 -15 -36 -30 -36 -10 0 -23 -6 -29 -14 -8 -10 -24 -12 -51 -9
-39 6 -40 5 -40 -26 0 -29 -2 -31 -21 -20 -17 9 -20 17 -16 44 5 32 4 33 -37
44 -23 6 -54 19 -68 30 -14 11 -28 18 -31 15 -4 -5 -33 27 -96 106 l-20 25
-35 -34 c-20 -19 -36 -42 -36 -52 0 -9 -7 -22 -15 -29 -13 -11 -15 -8 -15 18
0 35 41 88 84 112 25 13 29 12 66 -25 50 -49 52 -27 4 38 -29 40 -39 48 -57
42 -12 -4 -35 -9 -52 -12 -16 -3 -37 -12 -46 -20 -14 -12 -17 -12 -23 3 -8 21
-16 16 77 39 l78 18 37 -36 38 -37 32 64 c18 35 32 67 32 70 0 3 -11 6 -24 6
-18 0 -25 -6 -28 -22 -2 -17 -10 -23 -28 -23 -37 0 -41 49 -6 76 14 11 31 38
37 60 11 36 10 42 -12 67 -14 15 -33 38 -44 51 l-20 24 22 -12 c12 -6 25 -16
28 -21z m2870 -20 c0 -7 -10 -15 -22 -16 -25 -4 -26 -3 -17 19 7 18 39 15 39
-3z m-2631 -13 c13 -9 17 -23 14 -52 l-3 -40 -22 42 c-33 61 -29 79 11 50z
m-384 -32 c0 -19 -27 -26 -34 -8 -3 8 -4 19 -1 23 8 13 35 1 35 -15z m2785 6
c3 -5 1 -12 -4 -15 -5 -3 -11 1 -15 9 -6 16 9 21 19 6z m278 -284 c3 -8 2 -19
-2 -26 -6 -9 -12 -8 -25 5 -14 14 -15 19 -4 25 18 12 25 11 31 -4z m-2593
-142 c0 -8 -4 -15 -10 -15 -5 0 -10 7 -10 15 0 8 5 15 10 15 6 0 10 -7 10 -15z
m-320 -120 c0 -2 -7 -11 -16 -20 -13 -13 -19 -14 -25 -4 -12 19 0 37 22 32 10
-3 19 -7 19 -8z m410 -49 c0 -14 -5 -28 -10 -31 -16 -10 -1 -25 26 -25 13 0
24 -3 24 -7 0 -4 -17 -47 -37 -95 -48 -112 -66 -117 -46 -11 16 84 12 93 -39
93 -25 0 -28 -4 -28 -32 0 -66 -13 -139 -24 -135 -11 4 -16 22 -40 140 -13 63
-13 68 3 61 49 -20 88 -25 116 -13 23 9 26 13 13 16 -11 3 -18 14 -18 27 0 29
7 36 37 36 18 0 23 -6 23 -24z m2149 -35 c-15 -5 -22 6 -14 19 6 9 10 9 16 -1
5 -8 4 -15 -2 -18z m-2399 -22 c30 -11 32 -14 26 -48 -3 -20 -6 -53 -6 -73 0
-32 -3 -38 -22 -38 -12 0 -32 -9 -44 -21 -18 -17 -26 -19 -43 -9 -26 13 -41 6
-41 -21 0 -14 -7 -19 -25 -19 -22 0 -25 4 -25 35 0 51 19 84 54 93 27 7 30 13
32 47 0 24 7 43 19 51 23 17 33 17 75 3z m505 -640 c0 -28 -4 -35 -22 -37 -23
-3 -23 -4 -23 -188 l0 -184 -40 0 -40 0 0 185 0 185 -25 0 c-22 0 -25 4 -25
33 0 19 2 36 5 38 2 3 42 4 87 3 l83 -2 0 -33z m185 39 c0 -2 11 -93 25 -203
32 -263 33 -245 -14 -245 -35 0 -39 3 -45 31 -3 17 -6 43 -6 56 0 20 -4 24
-22 21 -20 -3 -24 -11 -28 -53 l-5 -50 -42 -3 c-42 -3 -43 -3 -38 25 3 15 14
107 25 203 28 240 19 217 90 219 33 1 60 0 60 -1z m400 -44 c0 -32 -2 -34 -35
-34 l-35 0 0 -55 c0 -54 0 -55 30 -55 28 0 30 -3 30 -35 0 -32 -2 -35 -30 -35
l-30 0 0 -60 0 -60 35 0 c33 0 35 -2 35 -35 l0 -35 -79 0 -78 0 -2 220 -1 219
73 3 c39 2 75 2 80 0 4 -2 7 -19 7 -38z m270 31 c31 -16 37 -28 45 -92 l5 -43
-44 0 c-44 0 -45 0 -48 38 -4 51 -32 51 -36 0 -2 -29 2 -41 19 -55 12 -10 41
-35 63 -55 41 -36 41 -37 41 -106 0 -60 -3 -74 -23 -95 -44 -47 -133 -42 -166
8 -9 14 -16 46 -16 75 l0 50 40 0 40 0 0 -45 c0 -37 3 -45 19 -45 21 0 31 19
31 56 0 17 -14 35 -49 61 -65 51 -81 79 -81 148 0 49 4 60 29 86 34 33 83 39
131 14z m212 5 c57 -16 68 -40 68 -143 0 -82 -2 -90 -26 -112 -18 -16 -39 -25
-60 -25 l-34 0 0 -80 0 -80 -42 0 -43 0 1 188 c1 103 2 204 3 225 l1 37 48 0
c26 0 64 -5 84 -10z m178 -215 l0 -225 -40 0 -40 0 0 225 0 225 40 0 40 0 0
-225z m126 212 c3 -3 16 -52 29 -109 l23 -103 1 108 c1 87 4 107 16 109 42 4
65 2 65 -4 0 -5 0 -105 0 -223 l0 -215 -44 0 -45 0 -11 58 c-7 31 -18 82 -25
112 l-13 55 -1 -112 -1 -113 -40 0 c-42 0 -42 0 -42 60 0 17 1 111 1 209 l1
180 40 -3 c22 -2 43 -6 46 -9z m-1034 -179 l3 -183 33 -3 c29 -3 32 -6 32 -38
l0 -34 -75 0 -75 0 0 220 0 220 40 0 40 0 2 -182z"/>
<path d="M2590 3000 c-24 -15 -7 -18 25 -4 23 10 25 13 10 13 -11 1 -27 -3
-35 -9z"/>
<path d="M3745 2919 c-10 -15 1 -23 20 -15 9 3 13 10 10 16 -8 13 -22 13 -30
-1z"/>
<path d="M3585 2160 c-3 -5 -1 -10 4 -10 6 0 11 5 11 10 0 6 -2 10 -4 10 -3 0
-8 -4 -11 -10z"/>
<path d="M1733 2153 c9 -2 23 -2 30 0 6 3 -1 5 -18 5 -16 0 -22 -2 -12 -5z"/>
<path d="M3663 1940 c0 -36 2 -50 4 -32 2 17 2 47 0 65 -2 17 -4 3 -4 -33z"/>
<path d="M3557 1873 c-4 -3 -7 -11 -7 -17 0 -6 5 -5 12 2 6 6 9 14 7 17 -3 3
-9 2 -12 -2z"/>
<path d="M2055 1860 c3 -5 8 -10 11 -10 2 0 4 5 4 10 0 6 -5 10 -11 10 -5 0
-7 -4 -4 -10z"/>
<path d="M3648 1845 c2 -14 6 -25 8 -25 2 0 4 11 4 25 0 14 -4 25 -9 25 -4 0
-6 -11 -3 -25z"/>
<path d="M3466 1804 c-9 -9 -14 -19 -11 -22 3 -3 13 2 22 11 9 9 14 19 11 22
-3 3 -13 -2 -22 -11z"/>
<path d="M2055 1780 c3 -5 8 -10 11 -10 2 0 4 5 4 10 0 6 -5 10 -11 10 -5 0
-7 -4 -4 -10z"/>
<path d="M2120 1669 c0 -5 5 -7 10 -4 6 3 10 8 10 11 0 2 -4 4 -10 4 -5 0 -10
-5 -10 -11z"/>
<path d="M2080 1631 c0 -19 35 -71 48 -71 18 0 25 25 17 58 -4 15 -10 21 -12
15 -6 -15 -33 -17 -33 -3 0 6 -4 10 -10 10 -5 0 -10 -4 -10 -9z"/>
<path d="M3771 1617 c-18 -45 -24 -77 -15 -77 15 1 41 67 33 86 -6 17 -8 16
-18 -9z"/>
<path d="M1795 3320 c-3 -5 -1 -10 4 -10 6 0 11 5 11 10 0 6 -2 10 -4 10 -3 0
-8 -4 -11 -10z"/>
<path d="M1941 1010 c-1 -25 -4 -69 -7 -97 -6 -45 -4 -53 10 -53 18 0 21 54 6
145 l-7 50 -2 -45z"/>
<path d="M1885 951 c-6 -11 9 -23 19 -14 9 9 7 23 -3 23 -6 0 -12 -4 -16 -9z"/>
<path d="M2273 985 c0 -8 4 -12 9 -9 4 3 8 9 8 15 0 5 -4 9 -8 9 -5 0 -9 -7
-9 -15z"/>
<path d="M2277 953 c-12 -11 -8 -23 7 -23 7 0 19 7 26 15 10 12 9 15 -7 15
-11 0 -23 -3 -26 -7z"/>
<path d="M2898 1075 c-3 -14 -1 -25 3 -25 5 0 9 4 9 9 0 5 3 16 6 25 3 9 2 16
-4 16 -5 0 -12 -11 -14 -25z"/>
<path d="M2840 989 c0 -62 2 -70 18 -67 14 3 18 16 20 71 3 62 1 67 -18 67
-18 0 -20 -6 -20 -71z"/>
<path d="M2797 988 c9 -10 17 -18 19 -18 1 0 0 8 -3 18 -2 10 -11 19 -19 19
-11 0 -11 -4 3 -19z"/>
<path d="M3278 1003 c7 -3 16 -2 19 1 4 3 -2 6 -13 5 -11 0 -14 -3 -6 -6z"/>
<path d="M3303 965 c0 -8 4 -12 9 -9 5 3 6 10 3 15 -9 13 -12 11 -12 -6z"/>
<path d="M3182 940 c0 -14 2 -19 5 -12 2 6 2 18 0 25 -3 6 -5 1 -5 -13z"/>
<path d="M3252 890 c0 -14 2 -19 5 -12 2 6 2 18 0 25 -3 6 -5 1 -5 -13z"/>
<path d="M2117 1000 c3 -11 7 -20 9 -20 2 0 4 9 4 20 0 11 -4 20 -9 20 -5 0
-7 -9 -4 -20z"/>
<path d="M2134 839 c-18 -24 -34 -69 -25 -69 5 0 7 -10 5 -22 -2 -13 -1 -16 2
-8 4 8 12 18 18 22 7 5 6 8 -4 9 -10 0 -8 3 5 9 19 8 19 9 1 9 -18 1 -18 2 -2
20 10 11 16 25 14 32 -3 8 -7 7 -14 -2z"/>
</g>
</svg>
